<?xml version="1.0" encoding="UTF-8"?>
<svg version="1.1" xmlns="http://www.w3.org/2000/svg" width="156" height="185">
<path d="M0 0 C51.48 0 102.96 0 156 0 C156 61.05 156 122.1 156 185 C104.52 185 53.04 185 0 185 C0 123.95 0 62.9 0 0 Z " fill="#FBFBFB" transform="translate(0,0)"/>
<path d="M0 0 C0.85796173 -0.00845947 1.71592346 -0.01691895 2.59988403 -0.02563477 C3.53299408 -0.01956207 4.46610413 -0.01348938 5.42749023 -0.00723267 C6.91102493 -0.0151181 6.91102493 -0.0151181 8.42453003 -0.02316284 C11.69520845 -0.03637137 14.96540057 -0.02762152 18.23608398 -0.01748657 C20.50765069 -0.01950706 22.77921677 -0.02241828 25.05078125 -0.02618408 C29.8121559 -0.0306086 34.57336176 -0.02417212 39.3347168 -0.01016235 C45.44156836 0.00692942 51.5480244 -0.00291105 57.65486145 -0.02087975 C62.34569282 -0.03171402 67.03643023 -0.02827284 71.7272644 -0.02049637 C73.97915697 -0.01849338 76.23105803 -0.02095706 78.48294067 -0.02793503 C81.62874997 -0.03554346 84.77391638 -0.02395334 87.91967773 -0.00723267 C89.3193428 -0.01634171 89.3193428 -0.01634171 90.74728394 -0.02563477 C92.03422653 -0.01294556 92.03422653 -0.01294556 93.34716797 0 C94.0904686 0.00113108 94.83376923 0.00226215 95.59959412 0.00342751 C98.35134932 0.50432293 99.69967235 1.40978133 101.67358398 3.38095093 C102.17415524 5.45962524 102.17415524 5.45962524 102.17478943 7.89755249 C102.18462357 8.82289795 102.1944577 9.74824341 102.20458984 10.70162964 C102.19492188 11.71471191 102.18525391 12.72779419 102.17529297 13.77157593 C102.18339745 15.37434387 102.18339745 15.37434387 102.19166565 17.00949097 C102.20419838 20.55025724 102.18763098 24.09021762 102.16967773 27.63095093 C102.16983262 30.08570397 102.17131978 32.54045726 102.17408752 34.99520874 C102.17547356 40.14343049 102.16287883 45.29137434 102.14013672 50.43954468 C102.11175187 57.04761778 102.11448688 63.65522889 102.12722683 70.26333618 C102.13417279 75.33330246 102.12640705 80.40316143 102.1139698 85.47311401 C102.10944479 87.91004017 102.10912762 90.3469778 102.1130352 92.78390503 C102.11593675 96.18628661 102.09949033 99.58802543 102.07763672 102.99032593 C102.08213837 104.0034082 102.08664001 105.01649048 102.09127808 106.06027222 C102.08137344 106.98561768 102.07146881 107.91096313 102.06126404 108.86434937 C102.05883414 109.66886536 102.05640425 110.47338135 102.05390072 111.30227661 C101.56920412 113.95145366 100.85694893 114.82649377 98.67358398 116.38095093 C96.68861389 116.75847435 96.68861389 116.75847435 94.38476562 116.76190186 C93.50990509 116.77036133 92.63504456 116.7788208 91.7336731 116.78753662 C90.77669525 116.78146393 89.81971741 116.77539124 88.83374023 116.76913452 C87.31875443 116.77701996 87.31875443 116.77701996 85.77316284 116.7850647 C82.42731359 116.79829216 79.08193826 116.78951669 75.73608398 116.77938843 C73.41585193 116.78140837 71.0956205 116.78431913 68.77539062 116.78808594 C63.90968794 116.79251302 59.04415032 116.78606573 54.1784668 116.77206421 C47.93360759 116.75497229 41.68913516 116.76481139 35.44429016 116.7827816 C30.65227328 116.79360896 25.86034848 116.79017788 21.06832886 116.78239822 C18.76537022 116.78039332 16.4624033 116.78286561 14.15945435 116.78983688 C10.94388603 116.79743397 7.72894889 116.78587117 4.51342773 116.76913452 C3.55644989 116.77520721 2.59947205 116.78127991 1.61349487 116.78753662 C0.30120407 116.77484741 0.30120407 116.77484741 -1.03759766 116.76190186 C-2.17800255 116.76020524 -2.17800255 116.76020524 -3.34144592 116.75847435 C-5.93337437 116.26551292 -6.79962444 115.5182498 -8.32641602 113.38095093 C-8.70673275 111.30227661 -8.70673275 111.30227661 -8.71409607 108.86434937 C-8.7240007 107.93900391 -8.73390533 107.01365845 -8.74411011 106.06027222 C-8.73960846 105.04718994 -8.73510681 104.03410767 -8.73046875 102.99032593 C-8.74076363 101.38755798 -8.74076363 101.38755798 -8.75126648 99.75241089 C-8.76960476 96.21179001 -8.76568717 92.67160922 -8.76000977 89.13095093 C-8.76456789 86.67619685 -8.76987234 84.22144404 -8.77589417 81.76669312 C-8.78483889 76.61852844 -8.78238622 71.47051879 -8.77246094 66.32235718 C-8.76096446 59.71422536 -8.78118688 53.10662734 -8.81037807 46.49856567 C-8.82869352 41.42860497 -8.82845698 36.35877331 -8.82274055 31.28878784 C-8.8225868 28.85184988 -8.82867572 26.41490347 -8.84103203 23.97799683 C-8.85585349 20.57551226 -8.84532967 17.17402844 -8.828125 13.77157593 C-8.83779297 12.75849365 -8.84746094 11.74541138 -8.85742188 10.70162964 C-8.84758774 9.77628418 -8.8377536 8.85093872 -8.82762146 7.89755249 C-8.82741218 7.0930365 -8.82720289 6.28852051 -8.82698727 5.45962524 C-8.32641602 3.38095093 -8.32641602 3.38095093 -6.56549168 1.62247276 C-4.11887875 0.26587574 -2.77239287 0.00421874 0 0 Z " fill="#FD0000" transform="translate(31.326416015625,48.619049072265625)"/>
<path d="M0 0 C0.84604797 -0.0049649 1.69209595 -0.00992981 2.56378174 -0.01504517 C5.36056332 -0.0296401 8.15728816 -0.03646482 10.95410156 -0.04199219 C12.90220134 -0.04774641 14.85030112 -0.05350411 16.79840088 -0.05926514 C20.88383243 -0.06976793 24.96924435 -0.07561513 29.0546875 -0.07910156 C34.27777225 -0.08458075 39.5005956 -0.10859959 44.72359848 -0.13707352 C48.74888861 -0.15574157 52.77411635 -0.16090775 56.79944611 -0.16243744 C58.72428057 -0.16545574 60.64911415 -0.17345639 62.57390594 -0.18662262 C65.27342836 -0.20376821 67.97231952 -0.20178205 70.671875 -0.1953125 C71.4596936 -0.20452728 72.24751221 -0.21374207 73.0592041 -0.22323608 C78.79724373 -0.18038019 84.72230547 0.56355938 89.16119003 4.5777092 C93.54529329 9.6409533 93.94869093 13.92351839 93.87207031 20.36816406 C93.44381828 24.68084295 92.25961882 26.72482437 89.59472656 30.16113281 C83.76258936 34.68401472 79.29964824 35.31453815 72.11938477 35.33813477 C71.25397568 35.34470596 70.38856659 35.35127716 69.49693298 35.35804749 C66.62979037 35.37777473 63.76270017 35.38944291 60.89550781 35.39941406 C59.42521653 35.40552735 59.42521653 35.40552735 57.9252224 35.41176414 C52.73538804 35.43262419 47.5455801 35.44692521 42.35571289 35.45629883 C37.00361042 35.46735249 31.65192494 35.50174068 26.29996967 35.54147053 C22.17774195 35.56765931 18.05561315 35.57599277 13.93330956 35.57958031 C11.96101254 35.58444178 9.98871982 35.5960432 8.01650429 35.6146183 C5.24968407 35.63905381 2.48393686 35.63803649 -0.28295898 35.63110352 C-1.49509567 35.6503186 -1.49509567 35.6503186 -2.73171997 35.66992188 C-8.38484948 35.61853758 -12.67417116 34.30716484 -17.40527344 31.16113281 C-22.25241969 26.06541496 -22.76349792 21.75706972 -22.68261719 14.95410156 C-22.25436516 10.64142268 -21.0701657 8.59744125 -18.40527344 5.16113281 C-12.3244931 0.34718171 -7.53976387 0.01058956 0 0 Z " fill="#DE0203" transform="translate(42.4052734375,10.8388671875)"/>
<path d="M0 0 C51.48 0 102.96 0 156 0 C156 61.05 156 122.1 156 185 C104.52 185 53.04 185 0 185 C0 123.95 0 62.9 0 0 Z M4 4 C4 7.3 4 10.6 4 14 C4.33 14.33 4.66 14.66 5 15 C5.09983058 16.98757028 5.13080753 18.9786752 5.1328125 20.96875 C5.13410156 22.17917969 5.13539063 23.38960937 5.13671875 24.63671875 C5.13285156 25.91160156 5.12898437 27.18648437 5.125 28.5 C5.12886719 29.77488281 5.13273438 31.04976562 5.13671875 32.36328125 C5.13542969 33.57371094 5.13414062 34.78414062 5.1328125 36.03125 C5.13168457 37.15080078 5.13055664 38.27035156 5.12939453 39.42382812 C5 42 5 42 4 43 C3.78139561 47.38164026 3.81420922 51.76873128 3.81469727 56.15527344 C3.81251592 58.35892184 3.79437832 60.56206562 3.77539062 62.765625 C3.77245572 64.16406078 3.77047157 65.56249895 3.76953125 66.9609375 C3.76542236 68.23759277 3.76131348 69.51424805 3.75708008 70.82958984 C3.75194527 74.15822354 3.75194527 74.15822354 6 77 C6.26171303 78.99335003 6.26171303 78.99335003 6.2784729 81.30900574 C6.28962442 82.18637736 6.30077595 83.06374899 6.3122654 83.96770763 C6.31443754 84.931223 6.31660969 85.89473837 6.31884766 86.88745117 C6.32900091 87.91868009 6.33915417 88.949909 6.3496151 90.01238728 C6.38029119 93.35591079 6.3974192 96.69934896 6.4140625 100.04296875 C6.43099247 102.10502868 6.44880859 104.16708153 6.4675293 106.22912598 C6.53077132 113.88183602 6.57683676 121.5346802 6.625 129.1875 C6.74875 146.285625 6.8725 163.38375 7 181 C53.2 181 99.4 181 147 181 C147.33 145.69 147.66 110.38 148 74 C149.32 73.67 150.64 73.34 152 73 C152.07580239 59.45032238 151.84033924 45.92004501 151.5 32.375 C151.45162415 30.38542149 151.40344602 28.39583816 151.35546875 26.40625 C151.23924878 21.60410831 151.12038716 16.80203895 151 12 C147.04 11.67 143.08 11.34 139 11 C138.34 8.69 137.68 6.38 137 4 C93.11 4 49.22 4 4 4 Z " fill="#040404" transform="translate(0,0)"/>
<path d="M0 0 C3.57423953 -0.3324874 5.63583344 -0.18208328 8.875 1.4375 C11.65656376 4.79173865 11.41425212 6.94753381 11.17578125 11.171875 C11.08876953 12.07679687 11.08876953 12.07679687 11 13 C11.99 13 12.98 13 14 13 C14 12.34 14 11.68 14 11 C16.875 10.375 16.875 10.375 20 10 C22 12 22 12 22.1953125 14.8203125 C22.17210937 15.91085938 22.14890625 17.00140625 22.125 18.125 C22.10695312 19.22070312 22.08890625 20.31640625 22.0703125 21.4453125 C22.04710937 22.28835937 22.02390625 23.13140625 22 24 C23.051875 23.34 24.10375 22.68 25.1875 22 C28.26623937 20.2228415 30.38596328 19.56193494 34 20 C34 20.66 34 21.32 34 22 C34.66 22 35.32 22 36 22 C36.02893932 25.62498334 36.04677792 29.24993713 36.0625 32.875 C36.07087891 33.90753906 36.07925781 34.94007812 36.08789062 36.00390625 C36.09111328 36.99003906 36.09433594 37.97617188 36.09765625 38.9921875 C36.10289307 39.90339355 36.10812988 40.81459961 36.11352539 41.75341797 C36 44 36 44 35 46 C32.71484375 47.0703125 32.71484375 47.0703125 29.9375 48.125 C29.01839844 48.47820312 28.09929687 48.83140625 27.15234375 49.1953125 C26.08693359 49.59363281 26.08693359 49.59363281 25 50 C24.67 49.34 24.34 48.68 24 48 C21.44496043 49.28288757 21.44496043 49.28288757 19 51 C19 51.99 19 52.98 19 54 C18.21625 54.2475 17.4325 54.495 16.625 54.75 C13.90780895 55.70783683 13.90780895 55.70783683 13.125 57.8125 C10.85661556 62.22324753 6.17920724 64.41039638 1.875 66.5625 C-1 67 -1 67 -3.8125 65.75 C-6.97094465 61.77938387 -6.89602903 57.95279873 -7 53 C-10.96 54.98 -10.96 54.98 -15 57 C-17 56.0625 -17 56.0625 -19 54 C-19.36475845 50.97465051 -19.22893297 48.03336186 -19 45 C-19.680625 45.53625 -20.36125 46.0725 -21.0625 46.625 C-24 48 -24 48 -27.8125 47.1875 C-28.864375 46.795625 -29.91625 46.40375 -31 46 C-31 45.34 -31 44.68 -31 44 C-31.99 43.67 -32.98 43.34 -34 43 C-34.08701039 39.39598519 -34.14039388 35.79223988 -34.1875 32.1875 C-34.21263672 31.16333984 -34.23777344 30.13917969 -34.26367188 29.08398438 C-34.27333984 28.10107422 -34.28300781 27.11816406 -34.29296875 26.10546875 C-34.3086792 25.19949951 -34.32438965 24.29353027 -34.34057617 23.36010742 C-33.93203296 20.5290055 -33.21675031 19.73831258 -31 18 C-29.53051184 17.05494873 -28.0276401 16.16034025 -26.5 15.3125 C-25.33984375 14.65701172 -25.33984375 14.65701172 -24.15625 13.98828125 C-22 13 -22 13 -19 13 C-19 12.34 -19 11.68 -19 11 C-17.35 11 -15.7 11 -14 11 C-14 10.01 -14 9.02 -14 8 C-11.69 7.34 -9.38 6.68 -7 6 C-7 5.34 -7 4.68 -7 4 C-4.69 3.34 -2.38 2.68 0 2 C0 1.34 0 0.68 0 0 Z " fill="#291C1C" transform="translate(76,73)"/>
<path d="M0 0 C0.85796173 -0.00845947 1.71592346 -0.01691895 2.59988403 -0.02563477 C3.53299408 -0.01956207 4.46610413 -0.01348938 5.42749023 -0.00723267 C6.91102493 -0.0151181 6.91102493 -0.0151181 8.42453003 -0.02316284 C11.69520845 -0.03637137 14.96540057 -0.02762152 18.23608398 -0.01748657 C20.50765069 -0.01950706 22.77921677 -0.02241828 25.05078125 -0.02618408 C29.8121559 -0.0306086 34.57336176 -0.02417212 39.3347168 -0.01016235 C45.44156836 0.00692942 51.5480244 -0.00291105 57.65486145 -0.02087975 C62.34569282 -0.03171402 67.03643023 -0.02827284 71.7272644 -0.02049637 C73.97915697 -0.01849338 76.23105803 -0.02095706 78.48294067 -0.02793503 C81.62874997 -0.03554346 84.77391638 -0.02395334 87.91967773 -0.00723267 C89.3193428 -0.01634171 89.3193428 -0.01634171 90.74728394 -0.02563477 C92.03422653 -0.01294556 92.03422653 -0.01294556 93.34716797 0 C94.0904686 0.00113108 94.83376923 0.00226215 95.59959412 0.00342751 C98.35134932 0.50432293 99.69967235 1.40978133 101.67358398 3.38095093 C102.17415524 5.45962524 102.17415524 5.45962524 102.17478943 7.89755249 C102.18462357 8.82289795 102.1944577 9.74824341 102.20458984 10.70162964 C102.19492188 11.71471191 102.18525391 12.72779419 102.17529297 13.77157593 C102.18339745 15.37434387 102.18339745 15.37434387 102.19166565 17.00949097 C102.20419838 20.55025724 102.18763098 24.09021762 102.16967773 27.63095093 C102.16983262 30.08570397 102.17131978 32.54045726 102.17408752 34.99520874 C102.17547356 40.14343049 102.16287883 45.29137434 102.14013672 50.43954468 C102.11175187 57.04761778 102.11448688 63.65522889 102.12722683 70.26333618 C102.13417279 75.33330246 102.12640705 80.40316143 102.1139698 85.47311401 C102.10944479 87.91004017 102.10912762 90.3469778 102.1130352 92.78390503 C102.11593675 96.18628661 102.09949033 99.58802543 102.07763672 102.99032593 C102.08213837 104.0034082 102.08664001 105.01649048 102.09127808 106.06027222 C102.08137344 106.98561768 102.07146881 107.91096313 102.06126404 108.86434937 C102.05883414 109.66886536 102.05640425 110.47338135 102.05390072 111.30227661 C101.56920412 113.95145366 100.85694893 114.82649377 98.67358398 116.38095093 C96.68861389 116.75847435 96.68861389 116.75847435 94.38476562 116.76190186 C93.50990509 116.77036133 92.63504456 116.7788208 91.7336731 116.78753662 C90.77669525 116.78146393 89.81971741 116.77539124 88.83374023 116.76913452 C87.31875443 116.77701996 87.31875443 116.77701996 85.77316284 116.7850647 C82.42731359 116.79829216 79.08193826 116.78951669 75.73608398 116.77938843 C73.41585193 116.78140837 71.0956205 116.78431913 68.77539062 116.78808594 C63.90968794 116.79251302 59.04415032 116.78606573 54.1784668 116.77206421 C47.93360759 116.75497229 41.68913516 116.76481139 35.44429016 116.7827816 C30.65227328 116.79360896 25.86034848 116.79017788 21.06832886 116.78239822 C18.76537022 116.78039332 16.4624033 116.78286561 14.15945435 116.78983688 C10.94388603 116.79743397 7.72894889 116.78587117 4.51342773 116.76913452 C3.55644989 116.77520721 2.59947205 116.78127991 1.61349487 116.78753662 C0.30120407 116.77484741 0.30120407 116.77484741 -1.03759766 116.76190186 C-2.17800255 116.76020524 -2.17800255 116.76020524 -3.34144592 116.75847435 C-5.93337437 116.26551292 -6.79962444 115.5182498 -8.32641602 113.38095093 C-8.70673275 111.30227661 -8.70673275 111.30227661 -8.71409607 108.86434937 C-8.7240007 107.93900391 -8.73390533 107.01365845 -8.74411011 106.06027222 C-8.73960846 105.04718994 -8.73510681 104.03410767 -8.73046875 102.99032593 C-8.74076363 101.38755798 -8.74076363 101.38755798 -8.75126648 99.75241089 C-8.76960476 96.21179001 -8.76568717 92.67160922 -8.76000977 89.13095093 C-8.76456789 86.67619685 -8.76987234 84.22144404 -8.77589417 81.76669312 C-8.78483889 76.61852844 -8.78238622 71.47051879 -8.77246094 66.32235718 C-8.76096446 59.71422536 -8.78118688 53.10662734 -8.81037807 46.49856567 C-8.82869352 41.42860497 -8.82845698 36.35877331 -8.82274055 31.28878784 C-8.8225868 28.85184988 -8.82867572 26.41490347 -8.84103203 23.97799683 C-8.85585349 20.57551226 -8.84532967 17.17402844 -8.828125 13.77157593 C-8.83779297 12.75849365 -8.84746094 11.74541138 -8.85742188 10.70162964 C-8.84758774 9.77628418 -8.8377536 8.85093872 -8.82762146 7.89755249 C-8.82741218 7.0930365 -8.82720289 6.28852051 -8.82698727 5.45962524 C-8.32641602 3.38095093 -8.32641602 3.38095093 -6.56549168 1.62247276 C-4.11887875 0.26587574 -2.77239287 0.00421874 0 0 Z M-4.32641602 5.38095093 C-4.35547839 24.19637911 -4.35547839 24.19637911 -4.37524414 43.0118103 C-4.38123327 50.68035571 -4.38833544 58.34888923 -4.40185547 66.01742554 C-4.41268201 72.19654534 -4.41869235 78.37565241 -4.42129326 84.55478096 C-4.42314793 86.91800703 -4.42676934 89.28123237 -4.43214607 91.64445305 C-4.4393534 94.94196989 -4.44040709 98.2394334 -4.43994141 101.53695679 C-4.44353668 102.52453979 -4.44713196 103.5121228 -4.45083618 104.52963257 C-4.44946152 105.42290756 -4.44808685 106.31618256 -4.44667053 107.23652649 C-4.44759233 108.01728515 -4.44851412 108.7980438 -4.44946384 109.60246181 C-4.52024544 111.40599307 -4.52024544 111.40599307 -3.32641602 112.38095093 C-0.22670837 112.48162126 2.8507607 112.51709393 5.95092773 112.51034546 C6.92482452 112.51209778 7.89872131 112.5138501 8.90213013 112.51565552 C12.13846592 112.52007592 15.37474758 112.51713538 18.61108398 112.51376343 C20.84928396 112.51443641 23.08748387 112.51540639 25.32568359 112.5166626 C30.02336318 112.51813983 34.72102379 112.51598421 39.41870117 112.51132202 C45.45519013 112.50562473 51.49163463 112.5089036 57.52812195 112.51489449 C62.1518996 112.51849943 66.77566662 112.51736182 71.39944458 112.51476669 C73.62590541 112.51409724 75.85236718 112.51492649 78.0788269 112.51724625 C81.18465753 112.51977167 84.29041508 112.51593373 87.39624023 112.51034546 C88.79110153 112.51338181 88.79110153 112.51338181 90.21414185 112.51647949 C94.26510205 112.91479321 94.26510205 112.91479321 97.67358398 111.38095093 C97.76897588 110.00219067 97.79547021 108.61858177 97.7938385 107.23652649 C97.79521317 106.3432515 97.79658783 105.4499765 97.79800415 104.52963257 C97.79440887 103.54204956 97.7908136 102.55446655 97.78710938 101.53695679 C97.7872554 100.50293228 97.78740143 99.46890778 97.78755188 98.40354919 C97.78685226 94.96761007 97.77905756 91.53172439 97.77124023 88.09579468 C97.76937623 85.720678 97.76795224 83.34556093 97.76695251 80.97044373 C97.76312595 74.70518948 97.75329449 68.43995826 97.74224854 62.17471313 C97.73024351 54.66491929 97.72563283 47.15511776 97.71979523 39.64531708 C97.71008281 28.22384567 97.6909272 16.8024248 97.67358398 5.38095093 C64.01358398 5.38095093 30.35358398 5.38095093 -4.32641602 5.38095093 Z " fill="#0B0202" transform="translate(31.326416015625,48.619049072265625)"/>
<path d="M0 0 C0.84604797 -0.0049649 1.69209595 -0.00992981 2.56378174 -0.01504517 C5.36056332 -0.0296401 8.15728816 -0.03646482 10.95410156 -0.04199219 C12.90220134 -0.04774641 14.85030112 -0.05350411 16.79840088 -0.05926514 C20.88383243 -0.06976793 24.96924435 -0.07561513 29.0546875 -0.07910156 C34.27777225 -0.08458075 39.5005956 -0.10859959 44.72359848 -0.13707352 C48.74888861 -0.15574157 52.77411635 -0.16090775 56.79944611 -0.16243744 C58.72428057 -0.16545574 60.64911415 -0.17345639 62.57390594 -0.18662262 C65.27342836 -0.20376821 67.97231952 -0.20178205 70.671875 -0.1953125 C71.4596936 -0.20452728 72.24751221 -0.21374207 73.0592041 -0.22323608 C78.79724373 -0.18038019 84.72230547 0.56355938 89.16119003 4.5777092 C93.54529329 9.6409533 93.94869093 13.92351839 93.87207031 20.36816406 C93.44381828 24.68084295 92.25961882 26.72482437 89.59472656 30.16113281 C83.76258936 34.68401472 79.29964824 35.31453815 72.11938477 35.33813477 C71.25397568 35.34470596 70.38856659 35.35127716 69.49693298 35.35804749 C66.62979037 35.37777473 63.76270017 35.38944291 60.89550781 35.39941406 C59.42521653 35.40552735 59.42521653 35.40552735 57.9252224 35.41176414 C52.73538804 35.43262419 47.5455801 35.44692521 42.35571289 35.45629883 C37.00361042 35.46735249 31.65192494 35.50174068 26.29996967 35.54147053 C22.17774195 35.56765931 18.05561315 35.57599277 13.93330956 35.57958031 C11.96101254 35.58444178 9.98871982 35.5960432 8.01650429 35.6146183 C5.24968407 35.63905381 2.48393686 35.63803649 -0.28295898 35.63110352 C-1.49509567 35.6503186 -1.49509567 35.6503186 -2.73171997 35.66992188 C-8.38484948 35.61853758 -12.67417116 34.30716484 -17.40527344 31.16113281 C-22.25241969 26.06541496 -22.76349792 21.75706972 -22.68261719 14.95410156 C-22.25436516 10.64142268 -21.0701657 8.59744125 -18.40527344 5.16113281 C-12.3244931 0.34718171 -7.53976387 0.01058956 0 0 Z M-16.40527344 9.16113281 C-19.06836174 13.24453487 -19.08532905 17.43351732 -18.40527344 22.16113281 C-16.40026464 25.96373571 -14.97841082 27.77904123 -11.40527344 30.16113281 C-8.41151417 30.36664229 -5.5100162 30.45481532 -2.51513672 30.45166016 C-1.15127335 30.46173599 -1.15127335 30.46173599 0.24014282 30.47201538 C3.25162187 30.49104286 6.26287861 30.49492201 9.27441406 30.49707031 C11.36565239 30.50349506 13.4568898 30.51022317 15.54812622 30.51724243 C19.93461186 30.52922717 24.32101867 30.53292204 28.70751953 30.53173828 C34.32897869 30.53153505 39.94993251 30.55883597 45.5712719 30.5932827 C49.89155398 30.61551819 54.21171382 30.61957684 58.53204727 30.61851883 C60.604501 30.62087989 62.67695785 30.62973171 64.74935532 30.64518356 C67.64853053 30.66477503 70.54660797 30.65903223 73.44580078 30.64697266 C74.30208069 30.65821167 75.1583606 30.66945068 76.04058838 30.68103027 C80.0879893 30.63823896 82.09272935 30.4811415 85.58596802 28.25430298 C88.75773045 24.94925743 89.88954031 22.3567493 89.96972656 17.78613281 C89.87242546 13.24291959 88.58072656 10.65901852 85.59472656 7.16113281 C81.65538249 4.53490343 78.27728428 4.86578805 73.70458984 4.87060547 C72.34072647 4.86052963 72.34072647 4.86052963 70.9493103 4.85025024 C67.93783125 4.83122277 64.92657451 4.82734362 61.91503906 4.82519531 C59.82380074 4.81877057 57.73256332 4.81204245 55.6413269 4.80502319 C51.25484127 4.79303845 46.86843445 4.78934359 42.48193359 4.79052734 C36.86047443 4.79073057 31.23952061 4.76342965 25.61818123 4.72898293 C21.29789915 4.70674743 16.9777393 4.70268878 12.65740585 4.7037468 C10.58495212 4.70138574 8.51249528 4.69253392 6.44009781 4.67708206 C3.5409226 4.65749059 0.64284515 4.66323339 -2.25634766 4.67529297 C-3.54076752 4.65843445 -3.54076752 4.65843445 -4.85113525 4.64123535 C-9.97354905 4.69539229 -12.69280794 5.29266288 -16.40527344 9.16113281 Z " fill="#0E0707" transform="translate(42.4052734375,10.8388671875)"/>
<path d="M0 0 C2.4375 1 2.4375 1 3.4375 3 C2.7775 3 2.1175 3 1.4375 3 C1.4375 3.66 1.4375 4.32 1.4375 5 C-0.2125 5.33 -1.8625 5.66 -3.5625 6 C-3.5625 6.66 -3.5625 7.32 -3.5625 8 C-4.5525 8 -5.5425 8 -6.5625 8 C-6.5625 8.66 -6.5625 9.32 -6.5625 10 C-8.2125 10.33 -9.8625 10.66 -11.5625 11 C-11.5625 11.66 -11.5625 12.32 -11.5625 13 C-13.2125 13.33 -14.8625 13.66 -16.5625 14 C-16.5625 14.66 -16.5625 15.32 -16.5625 16 C-20.1925 17.98 -23.8225 19.96 -27.5625 22 C-26.5725 22.33 -25.5825 22.66 -24.5625 23 C-24.5625 22.34 -24.5625 21.68 -24.5625 21 C-23.95736572 20.71229736 -23.35223145 20.42459473 -22.72875977 20.12817383 C-16.36906151 17.03613541 -10.42915905 13.53280961 -4.5 9.6875 C-2.82284612 8.60616042 -1.14452702 7.52662515 0.53515625 6.44921875 C1.62582397 5.74285278 1.62582397 5.74285278 2.73852539 5.0222168 C4.4375 4 4.4375 4 5.4375 4 C5.4375 6.97 5.4375 9.94 5.4375 13 C4.550625 12.731875 3.66375 12.46375 2.75 12.1875 C-0.73003881 11.62063968 -0.73003881 11.62063968 -3.375 14.25 C-5.70539871 16.85686693 -5.70539871 16.85686693 -6.5625 20 C-9.06640625 21.60546875 -9.06640625 21.60546875 -12.125 23.1875 C-13.13691406 23.71730469 -14.14882812 24.24710938 -15.19140625 24.79296875 C-15.97386719 25.19128906 -16.75632812 25.58960937 -17.5625 26 C-17.8925 25.34 -18.2225 24.68 -18.5625 24 C-20.98517086 23.94832473 -20.98517086 23.94832473 -23.5625 25 C-25.38520418 28.22011073 -26.63465505 30.62905414 -26.4375 34.375 C-25.60444289 36.3667772 -25.60444289 36.3667772 -22.5625 37 C-22.5625 35.35 -22.5625 33.7 -22.5625 32 C-21.9025 32 -21.2425 32 -20.5625 32 C-20.5625 31.01 -20.5625 30.02 -20.5625 29 C-18.62624902 28.01836578 -16.68845461 27.03977546 -14.75 26.0625 C-13.67105469 25.51722656 -12.59210938 24.97195312 -11.48046875 24.41015625 C-8.5625 23 -8.5625 23 -5.5625 22 C-5.5625 21.34 -5.5625 20.68 -5.5625 20 C-2.5625 18 -2.5625 18 1.4375 18 C1.9325 16.515 1.9325 16.515 2.4375 15 C4.74118736 13.93347808 7.07768187 12.93578995 9.4375 12 C10.4275 11.34 11.4175 10.68 12.4375 10 C13.4275 10 14.4175 10 15.4375 10 C15.4375 10.66 15.4375 11.32 15.4375 12 C14.5403125 12.46148437 13.643125 12.92296875 12.71875 13.3984375 C9.33890412 15.15147529 5.99988771 16.97376254 2.66308594 18.80712891 C0.43647759 20.00054799 -1.81952688 21.11490088 -4.0859375 22.23046875 C-12.2228203 26.28333574 -12.2228203 26.28333574 -16.82421875 33.69140625 C-17.12207879 37.58679659 -17.01000711 41.12303939 -16.5625 45 C-16.4903125 45.90363281 -16.418125 46.80726562 -16.34375 47.73828125 C-16.14017663 50.09162177 -16.14017663 50.09162177 -15.5625 53 C-16.8825 53.66 -18.2025 54.32 -19.5625 55 C-21.5625 54.0625 -21.5625 54.0625 -23.5625 52 C-23.92725845 48.97465051 -23.79143297 46.03336186 -23.5625 43 C-24.243125 43.53625 -24.92375 44.0725 -25.625 44.625 C-28.5625 46 -28.5625 46 -32.375 45.1875 C-33.426875 44.795625 -34.47875 44.40375 -35.5625 44 C-35.5625 43.34 -35.5625 42.68 -35.5625 42 C-36.5525 41.67 -37.5425 41.34 -38.5625 41 C-38.64951039 37.39598519 -38.70289388 33.79223988 -38.75 30.1875 C-38.77513672 29.16333984 -38.80027344 28.13917969 -38.82617188 27.08398438 C-38.83583984 26.10107422 -38.84550781 25.11816406 -38.85546875 24.10546875 C-38.8711792 23.19949951 -38.88688965 22.29353027 -38.90307617 21.36010742 C-38.49453296 18.5290055 -37.77925031 17.73831258 -35.5625 16 C-34.09301184 15.05494873 -32.5901401 14.16034025 -31.0625 13.3125 C-29.90234375 12.65701172 -29.90234375 12.65701172 -28.71875 11.98828125 C-26.5625 11 -26.5625 11 -23.5625 11 C-23.5625 10.34 -23.5625 9.68 -23.5625 9 C-22.95664062 8.85304688 -22.35078125 8.70609375 -21.7265625 8.5546875 C-16.71391761 7.21284102 -12.67064697 5.59802917 -8.3125 2.75 C-5.04111682 0.66867904 -3.97641835 0 0 0 Z " fill="#524F4F" transform="translate(80.5625,75)"/>
<path d="M0 0 C0.33 0 0.66 0 1 0 C1 35.31 1 70.62 1 107 C-45.2 107 -91.4 107 -139 107 C-139 72.68 -139 38.36 -139 3 C-138.67 3 -138.34 3 -138 3 C-138 36.99 -138 70.98 -138 106 C-116.22 106 -94.44 106 -72 106 C-74.31 103.36 -76.62 100.72 -79 98 C-79.33 96.68 -79.66 95.36 -80 94 C-79 93 -79 93 -75.18359375 92.90234375 C-73.60153318 92.90901911 -72.01948841 92.92098125 -70.4375 92.9375 C-69.63119141 92.94201172 -68.82488281 92.94652344 -67.99414062 92.95117188 C-65.99606244 92.96299482 -63.99802217 92.98093086 -62 93 C-61.41259766 94.88427734 -61.41259766 94.88427734 -61 97 C-62.3984375 98.8515625 -62.3984375 98.8515625 -64.375 100.625 C-67.07364855 103.01777659 -67.07364855 103.01777659 -69 106 C-46.23 106 -23.46 106 0 106 C0 71.02 0 36.04 0 0 Z " fill="#E9E9E9" transform="translate(146,74)"/>
<path d="M0 0 C0 3.63 0 7.26 0 11 C1.423125 10.319375 2.84625 9.63875 4.3125 8.9375 C8.625 6.875 8.625 6.875 12 8 C5.0115461 13.05766091 -2.16968996 17.6026702 -9.625 21.9375 C-10.62917969 22.52595703 -11.63335937 23.11441406 -12.66796875 23.72070312 C-15.10980147 25.15091943 -17.5537979 26.57727448 -20 28 C-19.34 28 -18.68 28 -18 28 C-17.01 28 -16.02 28 -15 28 C-14.86469156 31.06398451 -14.7657593 34.12197126 -14.6875 37.1875 C-14.6246582 38.48397461 -14.6246582 38.48397461 -14.56054688 39.80664062 C-14.4391079 46.1457553 -14.4391079 46.1457553 -16.13525391 48.72900391 C-17.51953125 50.11328125 -17.51953125 50.11328125 -20 52 C-22.91517292 50.92598892 -24.77810176 50.22189824 -27 48 C-27.36800689 44.0018234 -27.1280524 40.00902501 -27 36 C-27.02835937 35.13632813 -27.05671875 34.27265625 -27.0859375 33.3828125 C-27.06136299 30.94993619 -26.94867283 29.24565066 -26 27 C-22.39683613 23.9484139 -18.75250933 22 -14 22 C-14 21.34 -14 20.68 -14 20 C-12.35 19.67 -10.7 19.34 -9 19 C-9 18.34 -9 17.68 -9 17 C-7.35 16.67 -5.7 16.34 -4 16 C-3.95101562 14.92878906 -3.90203125 13.85757813 -3.8515625 12.75390625 C-3.77654706 11.35674361 -3.7009987 9.9596095 -3.625 8.5625 C-3.5940625 7.85544922 -3.563125 7.14839844 -3.53125 6.41992188 C-3.42719371 4.60760812 -3.22080108 2.80182012 -3 1 C-1 0 -1 0 0 0 Z " fill="#151212" transform="translate(97,88)"/>
<path d="M0 0 C0 6.27 0 12.54 0 19 C-0.99 19.33 -1.98 19.66 -3 20 C-3 19.34 -3 18.68 -3 18 C-5.55503957 19.28288757 -5.55503957 19.28288757 -8 21 C-8 21.99 -8 22.98 -8 24 C-10.1171875 25.60546875 -10.1171875 25.60546875 -12.875 27.1875 C-13.77992187 27.71730469 -14.68484375 28.24710938 -15.6171875 28.79296875 C-18 30 -18 30 -20 30 C-20 23.73 -20 17.46 -20 11 C-13 7 -13 7 -11 7 C-11 6.34 -11 5.68 -11 5 C-10.01 5 -9.02 5 -8 5 C-8 4.34 -8 3.68 -8 3 C-2.25 0 -2.25 0 0 0 Z " fill="#FAFAFA" transform="translate(103,103)"/>
<path d="M0 0 C0 0.66 0 1.32 0 2 C0.66 2 1.32 2 2 2 C2.02893932 5.62498334 2.04677792 9.24993713 2.0625 12.875 C2.07087891 13.90753906 2.07925781 14.94007812 2.08789062 16.00390625 C2.09111328 16.99003906 2.09433594 17.97617188 2.09765625 18.9921875 C2.10289307 19.90339355 2.10812988 20.81459961 2.11352539 21.75341797 C2 24 2 24 1 26 C-4.42307692 29 -4.42307692 29 -7 29 C-7 22.73 -7 16.46 -7 10 C-8.65 10.99 -10.3 11.98 -12 13 C-12.99 13 -13.98 13 -15 13 C-15 13.66 -15 14.32 -15 15 C-15.99 15 -16.98 15 -18 15 C-18 15.66 -18 16.32 -18 17 C-21.96 18.98 -21.96 18.98 -26 21 C-26.33 27.27 -26.66 33.54 -27 40 C-25.35 39.01 -23.7 38.02 -22 37 C-21.34 37.33 -20.68 37.66 -20 38 C-21.66215268 39.33895632 -23.32963607 40.67130142 -25 42 C-25.680625 42.598125 -26.36125 43.19625 -27.0625 43.8125 C-29 45 -29 45 -31.25 44.6875 C-31.8275 44.460625 -32.405 44.23375 -33 44 C-31.68 43.34 -30.36 42.68 -29 42 C-28.67 35.73 -28.34 29.46 -28 23 C-29.65 23.66 -31.3 24.32 -33 25 C-33.99 24.34 -34.98 23.68 -36 23 C-35.38898438 22.72929688 -34.77796875 22.45859375 -34.1484375 22.1796875 C-22.8135958 16.84752253 -12.48015095 9.81797327 -2 3 C-3.15048828 3.49113281 -3.15048828 3.49113281 -4.32421875 3.9921875 C-7.09718753 5.03660494 -9.06773447 5.16755803 -12 5 C-7.65430977 1.45483165 -5.6329135 -0.14823457 0 0 Z " fill="#381919" transform="translate(110,93)"/>
<path d="M0 0 C0.66223136 3.51682973 0.84586777 6.50298105 0 10 C-2.9998093 13.16621325 -6.56082268 15.06435355 -10.375 17.125 C-11.35984375 17.69992188 -12.3446875 18.27484375 -13.359375 18.8671875 C-20.54259673 23 -20.54259673 23 -23 23 C-23 25.97 -23 28.94 -23 32 C-24.32 32.66 -25.64 33.32 -27 34 C-27 27.73 -27 21.46 -27 15 C-26.34 15 -25.68 15 -25 15 C-25 14.34 -25 13.68 -25 13 C-23.35 12.67 -21.7 12.34 -20 12 C-20 11.34 -20 10.68 -20 10 C-19.3709375 9.69707031 -18.741875 9.39414063 -18.09375 9.08203125 C-13.05801786 6.61725272 -8.26187925 4.02686631 -3.59375 0.91796875 C-2 0 -2 0 0 0 Z " fill="#FAFAFA" transform="translate(93,91)"/>
<path d="M0 0 C0 2.97 0 5.94 0 9 C-0.886875 8.731875 -1.77375 8.46375 -2.6875 8.1875 C-6.16753881 7.62063968 -6.16753881 7.62063968 -8.8125 10.25 C-11.14289871 12.85686693 -11.14289871 12.85686693 -12 16 C-14.50390625 17.60546875 -14.50390625 17.60546875 -17.5625 19.1875 C-18.57441406 19.71730469 -19.58632812 20.24710938 -20.62890625 20.79296875 C-21.41136719 21.19128906 -22.19382812 21.58960937 -23 22 C-23.33 21.34 -23.66 20.68 -24 20 C-26.42267086 19.94832473 -26.42267086 19.94832473 -29 21 C-30.82858416 24.23049869 -32.10933021 26.61515071 -31.8125 30.375 C-31.10416667 32.19791667 -31.10416667 32.19791667 -29 33 C-29 34.32 -29 35.64 -29 37 C-30.98 37.99 -32.96 38.98 -35 40 C-35 33.73 -35 27.46 -35 21 C-33.35 20.34 -31.7 19.68 -30 19 C-30 18.34 -30 17.68 -30 17 C-29.39486572 16.71229736 -28.78973145 16.42459473 -28.16625977 16.12817383 C-21.80656151 13.03613541 -15.86665905 9.53280961 -9.9375 5.6875 C-8.26034612 4.60616042 -6.58202702 3.52662515 -4.90234375 2.44921875 C-4.17523193 1.97830811 -3.44812012 1.50739746 -2.69897461 1.0222168 C-1 0 -1 0 0 0 Z " fill="#F5F5F5" transform="translate(86,79)"/>
<path d="M0 0 C3 0.3125 3 0.3125 6 1 C6.495 1.99 6.495 1.99 7 3 C6.34 3 5.68 3 5 3 C5 3.66 5 4.32 5 5 C3.35 5.33 1.7 5.66 0 6 C0 6.66 0 7.32 0 8 C-0.99 8 -1.98 8 -3 8 C-3 8.66 -3 9.32 -3 10 C-4.65 10.33 -6.3 10.66 -8 11 C-8 11.66 -8 12.32 -8 13 C-9.65 13.33 -11.3 13.66 -13 14 C-13 14.66 -13 15.32 -13 16 C-14.72156096 17.01303762 -16.45261806 18.00994848 -18.1875 19 C-19.15042969 19.556875 -20.11335938 20.11375 -21.10546875 20.6875 C-24.04888743 22.02216758 -25.81880057 22.27915461 -29 22 C-29 21.34 -29 20.68 -29 20 C-29.66 20 -30.32 20 -31 20 C-31 19.34 -31 18.68 -31 18 C-30.34 18 -29.68 18 -29 18 C-29 17.34 -29 16.68 -29 16 C-27.04414675 14.99515796 -25.08523763 13.99626195 -23.125 13 C-22.03445312 12.443125 -20.94390625 11.88625 -19.8203125 11.3125 C-17 10 -17 10 -15 10 C-15 9.34 -15 8.68 -15 8 C-14.00097656 7.50628906 -13.00195312 7.01257813 -11.97265625 6.50390625 C-10.6692186 5.85687605 -9.36583602 5.20973489 -8.0625 4.5625 C-7.40314453 4.23701172 -6.74378906 3.91152344 -6.06445312 3.57617188 C-2.81709965 2.10888654 -2.81709965 2.10888654 0 0 Z " fill="#F8F8F8" transform="translate(77,75)"/>
<path d="M0 0 C2.63556905 1.31778453 4.72269553 3.14219898 7 5 C6.835 5.763125 6.67 6.52625 6.5 7.3125 C5.75546191 11.31439223 5.68050495 12.52075742 8 16 C6.37829621 17.00533667 4.75252763 18.00411907 3.125 19 C2.22007813 19.556875 1.31515625 20.11375 0.3828125 20.6875 C-2 22 -2 22 -4 22 C-4.11613204 18.89614789 -4.18722029 15.79285338 -4.25 12.6875 C-4.28351563 11.80642578 -4.31703125 10.92535156 -4.3515625 10.01757812 C-4.45112665 3.47123501 -4.45112665 3.47123501 -1.984375 0.89453125 C-1.32953125 0.59933594 -0.6746875 0.30414063 0 0 Z " fill="#E8E8E8" transform="translate(87,111)"/>
<path d="M0 0 C3.875 1.75 3.875 1.75 5 4 C2.3401439 7.44216672 -0.90288286 7.99504674 -5 9 C-5 9.66 -5 10.32 -5 11 C-7.01171875 12.47265625 -7.01171875 12.47265625 -9.6875 14.0625 C-10.55761719 14.58972656 -11.42773438 15.11695312 -12.32421875 15.66015625 C-14.9343306 16.96711737 -17.12609257 17.58056486 -20 18 C-20 18.99 -20 19.98 -20 21 C-20.66 21 -21.32 21 -22 21 C-22 22.65 -22 24.3 -22 26 C-23.32 25.67 -24.64 25.34 -26 25 C-27.39049921 21.83977452 -26.90218951 20.72985675 -25.6875 17.375 C-24 14 -24 14 -22 12 C-19.5625 12.375 -19.5625 12.375 -17 13 C-13.00240978 13 -11.24897149 11.21206569 -8 9 C-7.34 9 -6.68 9 -6 9 C-5.9071875 7.88625 -5.9071875 7.88625 -5.8125 6.75 C-4.75814862 3.1814261 -3.00090227 2.07754772 0 0 Z " fill="#101010" transform="translate(80,86)"/>
<path d="M0 0 C5.61 0 11.22 0 17 0 C17.33 1.32 17.66 2.64 18 4 C16.48828125 6.17578125 16.48828125 6.17578125 14.3125 8.3125 C13.60738281 9.03050781 12.90226562 9.74851563 12.17578125 10.48828125 C10 12 10 12 7.96875 11.9375 C5.61426651 10.81631739 4.04710686 9.51578717 2.1875 7.6875 C1.24970703 6.79611328 1.24970703 6.79611328 0.29296875 5.88671875 C-0.13371094 5.26410156 -0.56039062 4.64148438 -1 4 C-0.67 2.68 -0.34 1.36 0 0 Z " fill="#070707" transform="translate(67,167)"/>
<path d="M0 0 C0 3.63 0 7.26 0 11 C1.423125 10.319375 2.84625 9.63875 4.3125 8.9375 C8.625 6.875 8.625 6.875 12 8 C5.0671044 12.99278319 -2.02585065 17.58300402 -9.375 21.9375 C-10.34566406 22.52595703 -11.31632812 23.11441406 -12.31640625 23.72070312 C-13.25097656 24.27564453 -14.18554688 24.83058594 -15.1484375 25.40234375 C-16.40406494 26.15245728 -16.40406494 26.15245728 -17.68505859 26.91772461 C-20 28 -20 28 -24 28 C-24 27.34 -24 26.68 -24 26 C-17.375 22 -17.375 22 -14 22 C-14 21.34 -14 20.68 -14 20 C-12.35 19.67 -10.7 19.34 -9 19 C-9 18.34 -9 17.68 -9 17 C-7.35 16.67 -5.7 16.34 -4 16 C-3.95101562 14.92878906 -3.90203125 13.85757813 -3.8515625 12.75390625 C-3.77654706 11.35674361 -3.7009987 9.9596095 -3.625 8.5625 C-3.5940625 7.85544922 -3.563125 7.14839844 -3.53125 6.41992188 C-3.42719371 4.60760812 -3.22080108 2.80182012 -3 1 C-1 0 -1 0 0 0 Z " fill="#EBEBEB" transform="translate(97,88)"/>
<path d="M0 0 C5.625 -0.25 5.625 -0.25 9 2 C9.6875 4.125 9.6875 4.125 10 6 C4.0021293 10.15641917 -2.17377358 14.03182112 -8.375 17.875 C-9.17212402 18.37555908 -9.96924805 18.87611816 -10.79052734 19.3918457 C-11.5480127 19.8580835 -12.30549805 20.32432129 -13.0859375 20.8046875 C-13.7670459 21.22733887 -14.4481543 21.64999023 -15.14990234 22.08544922 C-17 23 -17 23 -20 23 C-20 23.66 -20 24.32 -20 25 C-23 26 -23 26 -25.1875 25.0625 C-26.0846875 24.5365625 -26.0846875 24.5365625 -27 24 C-25.948125 23.566875 -24.89625 23.13375 -23.8125 22.6875 C-21.45854474 21.68885231 -19.44518527 20.65954551 -17.25 19.3125 C-15 18 -15 18 -12 18 C-12 17.34 -12 16.68 -12 16 C-10.35 15.67 -8.7 15.34 -7 15 C-7 14.34 -7 13.68 -7 13 C-5.35 12.67 -3.7 12.34 -2 12 C-2 11.34 -2 10.68 -2 10 C-1.01 10 -0.02 10 1 10 C1 9.34 1 8.68 1 8 C2.65 7.67 4.3 7.34 6 7 C6.33 6.01 6.66 5.02 7 4 C3.23011874 2.96877687 1.50013355 2.76912074 -2.10546875 4.43359375 C-3.12253906 5.09488281 -4.13960937 5.75617188 -5.1875 6.4375 C-10.72994129 10 -10.72994129 10 -14 10 C-14 9.34 -14 8.68 -14 8 C-11.69 7.34 -9.38 6.68 -7 6 C-7 5.34 -7 4.68 -7 4 C-4.69 3.34 -2.38 2.68 0 2 C0 1.34 0 0.68 0 0 Z " fill="#525252" transform="translate(76,73)"/>
<path d="M0 0 C0 6.27 0 12.54 0 19 C-1.98 19.99 -3.96 20.98 -6 22 C-6.08685287 18.70849875 -6.14033895 15.4172904 -6.1875 12.125 C-6.21263672 11.18785156 -6.23777344 10.25070313 -6.26367188 9.28515625 C-6.27333984 8.38925781 -6.28300781 7.49335937 -6.29296875 6.5703125 C-6.3086792 5.74289551 -6.32438965 4.91547852 -6.34057617 4.06298828 C-6.22818604 3.38220215 -6.1157959 2.70141602 -6 2 C-3 0 -3 0 0 0 Z " fill="#ECECEC" transform="translate(82,116)"/>
<path d="M0 0 C2.475 0.495 2.475 0.495 5 1 C6.17426264 3.34852528 6.11508173 4.73774065 6.09765625 7.3515625 C6.09443359 8.20234375 6.09121094 9.053125 6.08789062 9.9296875 C6.07951172 10.81914063 6.07113281 11.70859375 6.0625 12.625 C6.05798828 13.5221875 6.05347656 14.419375 6.04882812 15.34375 C6.03702591 17.56256648 6.02056155 19.78125018 6 22 C4.02 21.01 2.04 20.02 0 19 C0 12.73 0 6.46 0 0 Z " fill="#F5F5F5" transform="translate(44,97)"/>
<path d="M0 0 C0 6.27 0 12.54 0 19 C-1.98 19.99 -3.96 20.98 -6 22 C-6.11613204 18.89614789 -6.18722029 15.79285338 -6.25 12.6875 C-6.28351563 11.80642578 -6.31703125 10.92535156 -6.3515625 10.01757812 C-6.45066069 3.50187213 -6.45066069 3.50187213 -4.109375 0.89453125 C-2 0 -2 0 0 0 Z " fill="#BABBBB" transform="translate(111,98)"/>
<path d="M0 0 C2.64 0 5.28 0 8 0 C9 1 9 1 9.1875 3.9375 C9 7 9 7 7 9 C7.350625 9.5775 7.70125 10.155 8.0625 10.75 C9.14917407 13.35801776 8.93065133 14.39417629 8 17 C4 10.25 4 10.25 4 8 C3.34 8 2.68 8 2 8 C2 10.97 2 13.94 2 17 C1.34 16.67 0.68 16.34 0 16 C0 10.72 0 5.44 0 0 Z " fill="#E2DFE9" transform="translate(101,20)"/>
<path d="M0 0 C0.99 0.33 1.98 0.66 3 1 C-1.625 5 -1.625 5 -5 5 C-5 5.66 -5 6.32 -5 7 C-5.99 7 -6.98 7 -8 7 C-8 7.66 -8 8.32 -8 9 C-11.96 10.98 -11.96 10.98 -16 13 C-16.33 19.27 -16.66 25.54 -17 32 C-15.35 31.01 -13.7 30.02 -12 29 C-11.34 29.33 -10.68 29.66 -10 30 C-11.66215268 31.33895632 -13.32963607 32.67130142 -15 34 C-15.680625 34.598125 -16.36125 35.19625 -17.0625 35.8125 C-19 37 -19 37 -21.25 36.6875 C-21.8275 36.460625 -22.405 36.23375 -23 36 C-21.68 35.34 -20.36 34.68 -19 34 C-18.67 27.73 -18.34 21.46 -18 15 C-19.65 15.66 -21.3 16.32 -23 17 C-23.99 16.34 -24.98 15.68 -26 15 C-25.29617187 14.67128906 -24.59234375 14.34257813 -23.8671875 14.00390625 C-17.07188801 10.73045258 -10.82457454 7.11254438 -4.63427734 2.80883789 C-3.13738072 1.79779875 -1.57207296 0.88965514 0 0 Z " fill="#2D2626" transform="translate(100,101)"/>
<path d="M0 0 C2.31 0 4.62 0 7 0 C7.66 0.66 8.32 1.32 9 2 C8.67028521 5.29714793 8.3773161 6.6226839 6 9 C6.99 11.31 7.98 13.62 9 16 C8.34 16.33 7.68 16.66 7 17 C6.73445313 16.43410156 6.46890625 15.86820313 6.1953125 15.28515625 C5.84210938 14.55167969 5.48890625 13.81820312 5.125 13.0625 C4.77695313 12.33160156 4.42890625 11.60070312 4.0703125 10.84765625 C3.1315023 8.83667541 3.1315023 8.83667541 1 8 C1 10.97 1 13.94 1 17 C0.67 17 0.34 17 0 17 C0 11.39 0 5.78 0 0 Z " fill="#DDDBE6" transform="translate(60,20)"/>
<path d="M0 0 C0 0.66 0 1.32 0 2 C-0.88558594 2.44988281 -1.77117187 2.89976563 -2.68359375 3.36328125 C-10.91455143 7.61644851 -18.72035036 12.2470481 -26.36303711 17.4934082 C-27.04116455 17.9493335 -27.71929199 18.40525879 -28.41796875 18.875 C-29.01375732 19.28492187 -29.6095459 19.69484375 -30.22338867 20.1171875 C-32 21 -32 21 -36 21 C-36 20.34 -36 19.68 -36 19 C-34.06374902 18.01836578 -32.12595461 17.03977546 -30.1875 16.0625 C-29.10855469 15.51722656 -28.02960938 14.97195312 -26.91796875 14.41015625 C-24 13 -24 13 -21 12 C-21 11.34 -21 10.68 -21 10 C-18 8 -18 8 -14 8 C-13.67 7.01 -13.34 6.02 -13 5 C-10.69631264 3.93347808 -8.35981813 2.93578995 -6 2 C-3 0 -3 0 0 0 Z " fill="#DDDDDD" transform="translate(96,85)"/>
<path d="M0 0 C0.66 0 1.32 0 2 0 C3.32 5.28 4.64 10.56 6 16 C5.34 16.33 4.68 16.66 4 17 C3.67 16.01 3.34 15.02 3 14 C0.98491642 13.26676204 0.98491642 13.26676204 -1 13 C-1.33 14.32 -1.66 15.64 -2 17 C-2.33 17 -2.66 17 -3 17 C-2.48517081 11.147205 -1.54642808 5.6702363 0 0 Z " fill="#DEDEE8" transform="translate(49,20)"/>
<path d="M0 0 C0.66 0 1.32 0 2 0 C2 6.6 2 13.2 2 20 C5.17009472 18.37921338 5.17009472 18.37921338 5.51171875 15.8359375 C5.56972656 15.02382812 5.62773438 14.21171875 5.6875 13.375 C5.75324219 12.55773437 5.81898437 11.74046875 5.88671875 10.8984375 C5.92410156 10.27195312 5.96148437 9.64546875 6 9 C6.66 9.33 7.32 9.66 8 10 C7.65274725 18.28197802 7.65274725 18.28197802 5.125 21.0625 C3 22 3 22 0 22 C-0.8388516 14.48905184 -1.0773541 7.49175465 0 0 Z " fill="#1B1C1C" transform="translate(64,105)"/>
<path d="M0 0 C-3.53855651 2.95097333 -7.15147793 5.41966375 -11.125 7.75 C-12.67574219 8.67039062 -12.67574219 8.67039062 -14.2578125 9.609375 C-17 11 -17 11 -20 11 C-20 11.66 -20 12.32 -20 13 C-21.65 13.33 -23.3 13.66 -25 14 C-25 14.66 -25 15.32 -25 16 C-25.99 15.67 -26.98 15.34 -28 15 C-23.60798997 11.28095925 -18.88228927 8.26972762 -14 5.25 C-13.2059375 4.74339844 -12.411875 4.23679687 -11.59375 3.71484375 C-10.8203125 3.23660156 -10.046875 2.75835937 -9.25 2.265625 C-8.55390625 1.83024414 -7.8578125 1.39486328 -7.140625 0.94628906 C-4.61805111 -0.16884511 -2.72913362 -0.17295646 0 0 Z " fill="#515151" transform="translate(93,90)"/>
<path d="M0 0 C0.99 0.33 1.98 0.66 3 1 C3 7.6 3 14.2 3 21 C2.01 20.34 1.02 19.68 0 19 C-0.34057617 17.02880859 -0.34057617 17.02880859 -0.29296875 14.6484375 C-0.28330078 13.79765625 -0.27363281 12.946875 -0.26367188 12.0703125 C-0.23853516 11.18085938 -0.21339844 10.29140625 -0.1875 9.375 C-0.17396484 8.4778125 -0.16042969 7.580625 -0.14648438 6.65625 C-0.11106925 4.43690211 -0.06168461 2.21874812 0 0 Z " fill="#EDEDED" transform="translate(72,117)"/>
<path d="M0 0 C0.99 0.33 1.98 0.66 3 1 C3 7.6 3 14.2 3 21 C2.01 20.34 1.02 19.68 0 19 C-0.34057617 17.02880859 -0.34057617 17.02880859 -0.29296875 14.6484375 C-0.28330078 13.79765625 -0.27363281 12.946875 -0.26367188 12.0703125 C-0.23853516 11.18085937 -0.21339844 10.29140625 -0.1875 9.375 C-0.17396484 8.4778125 -0.16042969 7.580625 -0.14648438 6.65625 C-0.11106925 4.43690211 -0.06168461 2.21874812 0 0 Z " fill="#E9EAEA" transform="translate(58,107)"/>
<path d="M0 0 C0.33 0 0.66 0 1 0 C1.66 3.63 2.32 7.26 3 11 C3.66 11 4.32 11 5 11 C5.66 7.37 6.32 3.74 7 0 C7.66 0.33 8.32 0.66 9 1 C8.43179252 6.45479185 7.05362055 10.91059256 5 16 C4.34 16 3.68 16 3 16 C2.29695778 14.27709395 1.61316509 12.54632534 0.9375 10.8125 C0.55464844 9.84957031 0.17179687 8.88664062 -0.22265625 7.89453125 C-1.05622133 4.79065325 -0.88679818 3.05080883 0 0 Z " fill="#E2DFEB" transform="translate(88,20)"/>
<path d="M0 0 C0.33 1.32 0.66 2.64 1 4 C1.66 4 2.32 4 3 4 C3.12375 4.969375 3.2475 5.93875 3.375 6.9375 C3.684375 8.4534375 3.684375 8.4534375 4 10 C4.66 10.33 5.32 10.66 6 11 C6 12.32 6 13.64 6 15 C4.02 15.99 2.04 16.98 0 18 C0 12.06 0 6.12 0 0 Z " fill="#ECECEC" transform="translate(51,101)"/>
<path d="M0 0 C3.875 1.75 3.875 1.75 5 4 C2.7991151 6.47859908 0.93627031 7.61210366 -2.1875 8.6875 C-3.26064453 9.06455078 -3.26064453 9.06455078 -4.35546875 9.44921875 C-4.89816406 9.63097656 -5.44085938 9.81273438 -6 10 C-5.72510809 5.96825194 -5.46508424 4.43105369 -2.4375 1.625 C-1.633125 1.08875 -0.82875 0.5525 0 0 Z " fill="#080808" transform="translate(80,86)"/>
<path d="M0 0 C0.99 0.33 1.98 0.66 3 1 C3.33 6.61 3.66 12.22 4 18 C5.65 17.34 7.3 16.68 9 16 C9 16.66 9 17.32 9 18 C3.25 21 3.25 21 1 21 C0.67 14.07 0.34 7.14 0 0 Z " fill="#242323" transform="translate(102,101)"/>
<path d="M0 0 C1.32 0 2.64 0 4 0 C4 0.66 4 1.32 4 2 C3.34 2 2.68 2 2 2 C2.33 7.94 2.66 13.88 3 20 C4.65 19.34 6.3 18.68 8 18 C6.35 19.65 4.7 21.3 3 23 C-0.4375 22.1875 -0.4375 22.1875 -4 21 C-4.33 20.01 -4.66 19.02 -5 18 C-2.525 18.99 -2.525 18.99 0 20 C0 13.4 0 6.8 0 0 Z " fill="#322E2E" transform="translate(49,98)"/>
<path d="M0 0 C5.53846154 -0.36923077 5.53846154 -0.36923077 7.875 1.5 C8.24625 1.995 8.6175 2.49 9 3 C7.9275 2.855625 6.855 2.71125 5.75 2.5625 C0.15750773 2.49246879 -3.8034904 5.52619611 -8.36328125 8.46875 C-11 10 -11 10 -14 10 C-14 9.34 -14 8.68 -14 8 C-11.69 7.34 -9.38 6.68 -7 6 C-7 5.34 -7 4.68 -7 4 C-4.69 3.34 -2.38 2.68 0 2 C0 1.34 0 0.68 0 0 Z " fill="#4C2828" transform="translate(76,73)"/>
<path d="M0 0 C2.64 0 5.28 0 8 0 C8 0.66 8 1.32 8 2 C6.02 2 4.04 2 2 2 C2 3.32 2 4.64 2 6 C2.66 6.33 3.32 6.66 4 7 C3.34 7 2.68 7 2 7 C2 10.3 2 13.6 2 17 C1.34 16.67 0.68 16.34 0 16 C0 10.72 0 5.44 0 0 Z " fill="#E9E6F1" transform="translate(101,20)"/>
<path d="M0 0 C0.66 0 1.32 0 2 0 C2 1.65 2 3.3 2 5 C2.66 4.67 3.32 4.34 4 4 C4 6.97 4 9.94 4 13 C2.68 13.33 1.36 13.66 0 14 C-0.19393875 11.85473901 -0.37998676 9.70876323 -0.5625 7.5625 C-0.71912109 5.77005859 -0.71912109 5.77005859 -0.87890625 3.94140625 C-0.91886719 2.97074219 -0.95882812 2.00007813 -1 1 C-0.67 0.67 -0.34 0.34 0 0 Z " fill="#FCFCFC" transform="translate(106,100)"/>
<path d="M0 0 C-0.66 0.66 -1.32 1.32 -2 2 C-2.99 2 -3.98 2 -5 2 C-5 2.66 -5 3.32 -5 4 C-6.65 4.33 -8.3 4.66 -10 5 C-10 5.66 -10 6.32 -10 7 C-11.26418246 7.69965443 -12.53665402 8.38434763 -13.8125 9.0625 C-14.52019531 9.44535156 -15.22789063 9.82820313 -15.95703125 10.22265625 C-18 11 -18 11 -21 10 C-18.0728152 8.12914904 -15.13177275 6.28131993 -12.1875 4.4375 C-11.35412109 3.90447266 -10.52074219 3.37144531 -9.66210938 2.82226562 C-8.85966797 2.32275391 -8.05722656 1.82324219 -7.23046875 1.30859375 C-6.49207764 0.84251709 -5.75368652 0.37644043 -4.99291992 -0.10375977 C-3 -1 -3 -1 0 0 Z " fill="#464646" transform="translate(93,103)"/>
<path d="M0 0 C-3.08297927 3.25914951 -5.9161331 6.06553673 -10 8 C-10.99 7.67 -11.98 7.34 -13 7 C-12.38125 6.5875 -11.7625 6.175 -11.125 5.75 C-8.9087413 3.92484577 -8.19118623 2.55254191 -7 0 C-4.3333581 -1.33332095 -2.83319697 -0.67102033 0 0 Z " fill="#433A3A" transform="translate(103,122)"/>
<path d="M0 0 C1.65 0 3.3 0 5 0 C-3.75 7 -3.75 7 -9 7 C-9 7.66 -9 8.32 -9 9 C-9.66 9 -10.32 9 -11 9 C-11.33 9.66 -11.66 10.32 -12 11 C-12 10.34 -12 9.68 -12 9 C-12.66 8.67 -13.32 8.34 -14 8 C-12.2335343 6.9923048 -10.46166177 5.99408286 -8.6875 5 C-7.20830078 4.1646875 -7.20830078 4.1646875 -5.69921875 3.3125 C-3 2 -3 2 0 2 C0 1.34 0 0.68 0 0 Z " fill="#503A3A" transform="translate(57,84)"/>
<path d="M0 0 C0.33 0 0.66 0 1 0 C1 4.62 1 9.24 1 14 C-0.32 14 -1.64 14 -3 14 C-3 11.69 -3 9.38 -3 7 C-2.34 7 -1.68 7 -1 7 C-1.020625 6.030625 -1.04125 5.06125 -1.0625 4.0625 C-1 1 -1 1 0 0 Z " fill="#F9F9F9" transform="translate(80,117)"/>
<path d="M0 0 C2.375 -0.125 2.375 -0.125 5 0 C5.66 0.66 6.32 1.32 7 2 C6.85140295 7.05229955 3.72649589 10.94546921 1 15 C0.67 14.34 0.34 13.68 0 13 C0.99609375 10.6171875 0.99609375 10.6171875 2.4375 7.875 C3.14712891 6.50988281 3.14712891 6.50988281 3.87109375 5.1171875 C4.24363281 4.41851562 4.61617188 3.71984375 5 3 C2.525 2.01 2.525 2.01 0 1 C0 0.67 0 0.34 0 0 Z " fill="#1D1D1D" transform="translate(87,114)"/>
<path d="M0 0 C0.99 0.33 1.98 0.66 3 1 C-1.625 5 -1.625 5 -5 5 C-5 5.66 -5 6.32 -5 7 C-5.99 7 -6.98 7 -8 7 C-8 7.66 -8 8.32 -8 9 C-8.99 9.33 -9.98 9.66 -11 10 C-11.66 9.34 -12.32 8.68 -13 8 C-10.90320896 6.63304778 -8.7989062 5.28153009 -6.6875 3.9375 C-6.09259766 3.54755859 -5.49769531 3.15761719 -4.88476562 2.75585938 C-3.30390365 1.75788505 -1.65405288 0.87131304 0 0 Z " fill="#555555" transform="translate(100,101)"/>
<path d="M0 0 C0.05429959 1.74965358 0.09292823 3.49979787 0.125 5.25 C0.14820312 6.22453125 0.17140625 7.1990625 0.1953125 8.203125 C-0.00137219 11.0196498 -0.55431084 12.60949036 -2 15 C-2.66 14.67 -3.32 14.34 -4 14 C-3.88655624 11.8535247 -3.75893655 9.70779408 -3.625 7.5625 C-3.52058594 5.77005859 -3.52058594 5.77005859 -3.4140625 3.94140625 C-3.27742188 2.97074219 -3.14078125 2.00007813 -3 1 C-1 0 -1 0 0 0 Z " fill="#C8CACA" transform="translate(97,88)"/>
<path d="M0 0 C0.66 0.33 1.32 0.66 2 1 C1.34 3.31 0.68 5.62 0 8 C-0.66 8 -1.32 8 -2 8 C-2 10.31 -2 12.62 -2 15 C-2.33 15 -2.66 15 -3 15 C-3.08078641 12.87561661 -3.13909141 10.7503677 -3.1875 8.625 C-3.22230469 7.44164063 -3.25710937 6.25828125 -3.29296875 5.0390625 C-3.19628906 4.03617187 -3.09960938 3.03328125 -3 2 C-2.01 1.34 -1.02 0.68 0 0 Z " fill="#A4A4A4" transform="translate(79,116)"/>
<path d="M0 0 C-0.78375 0.4125 -1.5675 0.825 -2.375 1.25 C-5.05891656 3.0392777 -5.88098949 4.04988139 -7 7 C-7 6.34 -7 5.68 -7 5 C-8.1446875 5.556875 -8.1446875 5.556875 -9.3125 6.125 C-10.199375 6.41375 -11.08625 6.7025 -12 7 C-12.99 6.34 -13.98 5.68 -15 5 C-13.06891037 3.96709159 -11.129882 2.94901328 -9.1875 1.9375 C-8.10855469 1.36902344 -7.02960938 0.80054687 -5.91796875 0.21484375 C-3 -1 -3 -1 0 0 Z " fill="#343434" transform="translate(89,111)"/>
<path d="M0 0 C0.66 0 1.32 0 2 0 C2 4.62 2 9.24 2 14 C1.67 14 1.34 14 1 14 C0.87625 13.030625 0.7525 12.06125 0.625 11.0625 C0.41875 10.051875 0.2125 9.04125 0 8 C-0.66 7.67 -1.32 7.34 -2 7 C-1.34 4.69 -0.68 2.38 0 0 Z " fill="#C1C5C5" transform="translate(109,98)"/>
<path d="M0 0 C-8.44827586 7 -8.44827586 7 -12 7 C-10.84625061 3.53875184 -10.12298029 3.11687417 -7.125 1.25 C-6.42632812 0.80140625 -5.72765625 0.3528125 -5.0078125 -0.109375 C-3 -1 -3 -1 0 0 Z " fill="#535353" transform="translate(75,96)"/>
<path d="M0 0 C0 0.99 0 1.98 0 3 C-1.609375 4.38671875 -1.609375 4.38671875 -3.75 5.6875 C-4.44609375 6.12449219 -5.1421875 6.56148438 -5.859375 7.01171875 C-8 8 -8 8 -12 8 C-12 7.34 -12 6.68 -12 6 C-8.04 4.02 -4.08 2.04 0 0 Z " fill="#EFEFEF" transform="translate(72,98)"/>
<path d="M0 0 C2.64 0 5.28 0 8 0 C8.33 0.99 8.66 1.98 9 3 C6.03 3 3.06 3 0 3 C0 2.01 0 1.02 0 0 Z " fill="#E5E5EC" transform="translate(74,27)"/>
<path d="M0 0 C-3.19990508 2.74277578 -6.00499382 4.6302836 -10 6 C-10.66 5.34 -11.32 4.68 -12 4 C-4.71428571 -0.57142857 -4.71428571 -0.57142857 0 0 Z " fill="#5D5D5D" transform="translate(93,90)"/>
<path d="M0 0 C0.66 0.33 1.32 0.66 2 1 C2 3.97 2 6.94 2 10 C2.99 10 3.98 10 5 10 C5 10.66 5 11.32 5 12 C3.35 12.66 1.7 13.32 0 14 C-0.33 13.34 -0.66 12.68 -1 12 C-0.34 12 0.32 12 1 12 C0.67 8.04 0.34 4.08 0 0 Z " fill="#312222" transform="translate(85,76)"/>
<path d="M0 0 C0.66 0 1.32 0 2 0 C1.14285714 8.57142857 1.14285714 8.57142857 -1 12 C-2.45606519 7.47907032 -1.27032841 4.48351204 0 0 Z " fill="#E9E6F1" transform="translate(49,20)"/>
<path d="M0 0 C1.65 0 3.3 0 5 0 C5 0.66 5 1.32 5 2 C4.01 2.495 4.01 2.495 3 3 C3 3.99 3 4.98 3 6 C2.01 6.33 1.02 6.66 0 7 C0 4.69 0 2.38 0 0 Z " fill="#CACACA" transform="translate(76,131)"/>
<path d="M0 0 C1.65 0 3.3 0 5 0 C5 1.32 5 2.64 5 4 C3.35 4 1.7 4 0 4 C0 2.68 0 1.36 0 0 Z " fill="#3E0F10" transform="translate(103,22)"/>
<path d="M0 0 C1.65 0 3.3 0 5 0 C5 1.32 5 2.64 5 4 C3.35 4 1.7 4 0 4 C0 2.68 0 1.36 0 0 Z " fill="#3F1011" transform="translate(61,22)"/>
<path d="M0 0 C0.66 0 1.32 0 2 0 C2.33 0.99 2.66 1.98 3 3 C1.02 4.32 -0.96 5.64 -3 7 C-3.99 6.34 -4.98 5.68 -6 5 C-4.35 4.67 -2.7 4.34 -1 4 C-0.67 2.68 -0.34 1.36 0 0 Z " fill="#5A5B5B" transform="translate(83,76)"/>
<path d="M0 0 C1.76462683 3.08809695 2 4.23312136 2 8 C0.68 8 -0.64 8 -2 8 C-1.125 2.25 -1.125 2.25 0 0 Z " fill="#939098" transform="translate(51,23)"/>
<path d="M0 0 C0.66 0.99 1.32 1.98 2 3 C-0.31 4.32 -2.62 5.64 -5 7 C-5.66 6.34 -6.32 5.68 -7 5 C-4.69 3.35 -2.38 1.7 0 0 Z " fill="#585959" transform="translate(109,95)"/>
<path d="M0 0 C0.99 0.33 1.98 0.66 3 1 C0.69 2.65 -1.62 4.3 -4 6 C-4.66 5.67 -5.32 5.34 -6 5 C-1.60546875 0.99609375 -1.60546875 0.99609375 0 0 Z " fill="#F8F8F8" transform="translate(106,95)"/>
<path d="M0 0 C0.66 0.33 1.32 0.66 2 1 C1.67 1.66 1.34 2.32 1 3 C0.01 3 -0.98 3 -2 3 C-2 3.66 -2 4.32 -2 5 C-2.66 5 -3.32 5 -4 5 C-4.33 5.66 -4.66 6.32 -5 7 C-5 6.34 -5 5.68 -5 5 C-5.66 4.67 -6.32 4.34 -7 4 C-1.7265625 0.77734375 -1.7265625 0.77734375 0 0 Z " fill="#592424" transform="translate(50,88)"/>
<path d="M0 0 C0 0.66 0 1.32 0 2 C-2.3125 3.6875 -2.3125 3.6875 -5 5 C-5.99 4.67 -6.98 4.34 -8 4 C-3.375 0 -3.375 0 0 0 Z " fill="#CDCDCD" transform="translate(96,85)"/>
<path d="M0 0 C3.375 -0.1875 3.375 -0.1875 7 0 C7.66 0.99 8.32 1.98 9 3 C6.03 2.67 3.06 2.34 0 2 C0 1.34 0 0.68 0 0 Z " fill="#E6E4ED" transform="translate(60,20)"/>
<path d="M0 0 C0.66 0.33 1.32 0.66 2 1 C0.35 2.65 -1.3 4.3 -3 6 C-3.66 5.67 -4.32 5.34 -5 5 C-4 2 -4 2 -2.0625 0.75 C-1.381875 0.5025 -0.70125 0.255 0 0 Z " fill="#E0E0E0" transform="translate(100,98)"/>
<path d="M0 0 C0.66 0 1.32 0 2 0 C2 0.66 2 1.32 2 2 C2.99 2 3.98 2 5 2 C5.33 2.99 5.66 3.98 6 5 C3.03 4.505 3.03 4.505 0 4 C-0.33 3.01 -0.66 2.02 -1 1 C-0.67 0.67 -0.34 0.34 0 0 Z " fill="#1E1E1E" transform="translate(43,93)"/>
</svg>
